<svg width="23" height="22" viewBox="0 0 23 22" fill="none" xmlns="http://www.w3.org/2000/svg">
<path d="M12.6875 16.6519C12.5454 16.7939 12.3716 16.8843 12.189 16.9229C11.8687 16.9907 11.5215 16.9004 11.2729 16.6519L7.71973 13.0986C7.63281 12.8506 7.63672 12.5781 7.73242 12.3325C7.78613 12.1953 7.86865 12.0664 7.97998 11.9556C8.29834 11.6367 8.76367 11.5547 9.1582 11.7085L10.98 13.5308V6.05518C10.98 5.50293 11.4277 5.05518 11.98 5.05518C12.5327 5.05518 12.98 5.50293 12.98 6.05518V13.5308L14.8018 11.7095C15.0674 11.6055 15.3652 11.6084 15.6289 11.7188C15.7568 11.7725 15.877 11.8516 15.981 11.9556C16.1313 12.106 16.229 12.2891 16.2739 12.4819C16.3218 12.6851 16.311 12.8994 16.2417 13.0977L12.6875 16.6519Z" fill="white"/>
<path fill-rule="evenodd" clip-rule="evenodd" d="M22.9805 11C22.9805 17.0752 18.0557 22 11.9805 22C5.90527 22 0.980469 17.0752 0.980469 11C0.980469 4.9248 5.90527 0 11.9805 0C18.0557 0 22.9805 4.9248 22.9805 11ZM20.9805 11C20.9805 15.9707 16.9512 20 11.9805 20C7.00977 20 2.98047 15.9707 2.98047 11C2.98047 6.0293 7.00977 2 11.9805 2C16.9512 2 20.9805 6.0293 20.9805 11Z" fill="white"/>
</svg>
