<svg width="16" height="20" viewBox="0 0 16 20" fill="none" xmlns="http://www.w3.org/2000/svg">
<path fill-rule="evenodd" clip-rule="evenodd" d="M1.44458 0.968262C1.16844 0.968262 0.94458 1.19212 0.94458 1.46826V18.5317C0.94458 18.8079 1.16844 19.0317 1.44458 19.0317H4.44458C4.72072 19.0317 4.94458 18.8079 4.94458 18.5317V1.46826C4.94458 1.19212 4.72072 0.968262 4.44458 0.968262H1.44458ZM11.5164 0.968262C11.2402 0.968262 11.0164 1.19212 11.0164 1.46826V18.5317C11.0164 18.8079 11.2402 19.0317 11.5164 19.0317H14.5164C14.7925 19.0317 15.0164 18.8079 15.0164 18.5317V1.46826C15.0164 1.19212 14.7925 0.968262 14.5164 0.968262H11.5164Z" fill="white"/>
</svg>
