<svg width="23" height="22" viewBox="0 0 23 22" fill="none" xmlns="http://www.w3.org/2000/svg">
<path d="M10.9805 6C10.9805 5.44775 11.4282 5 11.9805 5C12.5327 5 12.9805 5.44775 12.9805 6V10H16.9805C17.5327 10 17.9805 10.4478 17.9805 11C17.9805 11.5522 17.5327 12 16.9805 12H12.9805V16C12.9805 16.5522 12.5327 17 11.9805 17C11.614 17 11.2935 16.8027 11.1194 16.5083C11.0312 16.3594 10.9805 16.1855 10.9805 16V12H6.98047C6.42822 12 5.98047 11.5522 5.98047 11C5.98047 10.7549 6.0686 10.5303 6.21509 10.3564C6.39844 10.1387 6.67334 10 6.98047 10H10.9805V6Z" fill="white"/>
<path fill-rule="evenodd" clip-rule="evenodd" d="M22.9805 11C22.9805 17.0752 18.0557 22 11.9805 22C5.90527 22 0.980469 17.0752 0.980469 11C0.980469 4.9248 5.90527 0 11.9805 0C18.0557 0 22.9805 4.9248 22.9805 11ZM20.9805 11C20.9805 15.9707 16.9509 20 11.9805 20C7.01001 20 2.98047 15.9707 2.98047 11C2.98047 6.0293 7.01001 2 11.9805 2C16.9509 2 20.9805 6.0293 20.9805 11Z" fill="white"/>
</svg>
