<svg width="24" height="22" viewBox="0 0 24 22" fill="none" xmlns="http://www.w3.org/2000/svg">
<path d="M0.0749512 2.9707C0.0749512 1.86621 0.970459 0.970703 2.07495 0.970703H7.1543V2.9707H2.07495V14.0356H7.1543V16.0356H2.07495C0.970459 16.0356 0.0749512 15.1401 0.0749512 14.0356V2.9707Z" fill="white"/>
<path d="M4.2168 19.0293H7.1543V21.0293H4.2168V19.0293Z" fill="white"/>
<path d="M16.886 7.60645C17.5764 7.60645 18.136 7.04688 18.136 6.35645C18.136 5.66602 17.5764 5.10645 16.886 5.10645C16.1956 5.10645 15.636 5.66602 15.636 6.35645C15.636 7.04688 16.1956 7.60645 16.886 7.60645Z" fill="white"/>
<path fill-rule="evenodd" clip-rule="evenodd" d="M16.886 17.0522C18.8191 17.0522 20.386 15.4854 20.386 13.5522C20.386 11.6191 18.8191 10.0522 16.886 10.0522C14.9529 10.0522 13.386 11.6191 13.386 13.5522C13.386 15.4854 14.9529 17.0522 16.886 17.0522ZM16.886 15.0522C17.7144 15.0522 18.386 14.3809 18.386 13.5522C18.386 12.7236 17.7144 12.0522 16.886 12.0522C16.0576 12.0522 15.386 12.7236 15.386 13.5522C15.386 14.3809 16.0576 15.0522 16.886 15.0522Z" fill="white"/>
<path fill-rule="evenodd" clip-rule="evenodd" d="M9.88599 2.9707C9.88599 1.86621 10.7815 0.970703 11.886 0.970703H21.886C22.9905 0.970703 23.886 1.86621 23.886 2.9707V18.9707C23.886 20.0752 22.9905 20.9707 21.886 20.9707H11.886C10.7815 20.9707 9.88599 20.0752 9.88599 18.9707V2.9707ZM11.886 3.9707C11.886 3.41846 12.3337 2.9707 12.886 2.9707H20.886C21.4382 2.9707 21.886 3.41846 21.886 3.9707V17.9707C21.886 18.5229 21.4382 18.9707 20.886 18.9707H12.886C12.3337 18.9707 11.886 18.5229 11.886 17.9707V3.9707Z" fill="white"/>
</svg>
