<svg width="20" height="18" viewBox="0 0 20 18" fill="none" xmlns="http://www.w3.org/2000/svg">
<path d="M5.28229 12.1775C5.26682 12.1941 5.25014 12.2123 5.23219 12.2318C5.01314 12.4703 4.60468 12.9149 3.89641 13.3248C3.13477 13.7656 1.99739 14.1802 0.361604 14.169L0.349854 15.8845C2.30149 15.8979 3.73836 15.3984 4.7557 14.8096C5.69496 14.2661 6.25218 13.658 6.48917 13.3994C6.5074 13.3795 6.52428 13.3611 6.53873 13.3455C6.70547 13.1662 6.87173 12.9889 7.04005 12.8094C8.21566 11.5556 9.49244 10.1939 11.7396 7.27719C13.3659 5.16624 15.6012 4.68752 16.1113 4.67476H16.6822L15.3531 6.00389C15.1293 6.34759 15.1682 6.81241 15.4698 7.11401C15.7522 7.39642 16.1777 7.44849 16.5129 7.27023L19.3596 4.42352C19.6946 4.08854 19.6946 3.54544 19.3596 3.21046L16.6266 0.477495C16.2898 0.291843 15.8577 0.341839 15.572 0.627485C15.2747 0.924854 15.2327 1.38091 15.4461 1.72308L16.6822 2.95922L16.0947 2.95922L16.087 2.95936C15.1513 2.97607 12.3796 3.63559 10.3806 6.23018C8.18416 9.08112 6.9526 10.3946 5.78739 11.6372L5.78587 11.6389C5.61754 11.8184 5.45058 11.9964 5.28229 12.1775Z" fill="white"/>
<path d="M5.23243 5.7683C5.25035 5.7878 5.26699 5.80592 5.28244 5.82254C5.45073 6.00356 5.61769 6.18162 5.78602 6.36115L5.78718 6.36239C6.19752 6.8 6.61644 7.24677 7.08247 7.76599L8.37735 6.64034C7.89252 6.09962 7.46008 5.63843 7.04049 5.19094C6.87217 5.01144 6.70562 4.83381 6.53888 4.65446C6.52443 4.63891 6.5081 4.62109 6.48986 4.60119C6.25287 4.34259 5.69511 3.73394 4.75585 3.19037C3.73851 2.60162 2.30164 2.10213 0.350002 2.1155L0.361753 3.831C1.99754 3.81979 3.13492 4.23442 3.89656 4.67519C4.60482 5.08508 5.01338 5.52983 5.23243 5.7683Z" fill="white"/>
<path d="M10.3808 11.7698C10.2863 11.6472 10.1936 11.5275 10.1027 11.4104L11.3993 10.2833C11.5103 10.4258 11.6237 10.5722 11.7397 10.7228C13.3661 12.8338 15.6014 13.3125 16.1115 13.3252H16.6824L15.3533 11.9961C15.1294 11.6524 15.1683 11.1876 15.4699 10.886C15.7523 10.6036 16.1779 10.5515 16.513 10.7298L19.3598 13.5765C19.6947 13.9115 19.6947 14.4546 19.3598 14.7895L16.6268 17.5225C16.2899 17.7082 15.8578 17.6582 15.5722 17.3725C15.2748 17.0751 15.2328 16.6191 15.4462 16.2769L16.6824 15.0408H16.0949L16.0872 15.0406C15.1514 15.0239 12.3797 14.3644 10.3808 11.7698Z" fill="white"/>
</svg>
