<svg width="20" height="20" viewBox="0 0 20 20" fill="none" xmlns="http://www.w3.org/2000/svg">
<path d="M18.8194 1.16113C18.4287 0.770508 17.7957 0.770508 17.4051 1.16113L9.98062 8.58545L2.55594 1.16113C2.16544 0.770508 1.53226 0.770508 1.14175 1.16113C0.751129 1.55176 0.751129 2.18457 1.14175 2.5752L8.56644 10L1.14163 17.4248C0.751129 17.8154 0.751129 18.4482 1.14163 18.8389C1.53214 19.2295 2.16531 19.2295 2.55582 18.8389L9.9805 11.4141L17.4052 18.8389C17.7957 19.2295 18.4289 19.2295 18.8194 18.8389C19.2099 18.4482 19.2099 17.8149 18.8194 17.4243L11.3948 10L18.8194 2.5752C19.2099 2.18506 19.2099 1.55176 18.8194 1.16113Z" fill="white"/>
</svg>
