<svg width="18" height="20" viewBox="0 0 18 20" fill="none" xmlns="http://www.w3.org/2000/svg">
<path d="M8.62427 0.154773C8.44165 0.193347 8.26782 0.283679 8.12573 0.425769L4.57153 3.97997C4.43677 4.3662 4.52319 4.81298 4.83228 5.12206C5.15112 5.44091 5.61694 5.52294 6.01147 5.36815L7.83325 3.54686V11.0224C7.83325 11.5747 8.28052 12.0224 8.83325 12.0224C9.3855 12.0224 9.83325 11.5747 9.83325 11.0224V3.54686L11.655 5.36913C12.0496 5.52294 12.5149 5.44091 12.8333 5.12206C13.1428 4.81298 13.2292 4.36571 13.0935 3.97899L9.54028 0.425769C9.29175 0.177234 8.94458 0.0869016 8.62427 0.154773Z" fill="white"/>
<path d="M1.16821 6.07762C0.615967 6.07762 0.168213 6.52538 0.168213 7.07762V18.8672C0.168213 19.4194 0.615967 19.8672 1.16821 19.8672H16.7927C17.345 19.8672 17.7927 19.4194 17.7927 18.8672V7.07762C17.7927 6.52538 17.345 6.07762 16.7927 6.07762H13.8547V8.07762H15.7927V17.8672H2.16821V8.07762H3.81079V6.07762H1.16821Z" fill="white"/>
</svg>
