<svg width="17" height="18" viewBox="0 0 17 18" fill="none" xmlns="http://www.w3.org/2000/svg">
<path fill-rule="evenodd" clip-rule="evenodd" d="M0.980469 3.91772C0.980469 2.26099 2.32373 0.917725 3.98047 0.917725H13.9805C15.6372 0.917725 16.9805 2.26099 16.9805 3.91772C16.9805 5.57446 15.6372 6.91772 13.9805 6.91772H3.98047C2.32373 6.91772 0.980469 5.57446 0.980469 3.91772ZM3.22168 3.91772C3.22168 3.36548 3.66943 2.91772 4.22168 2.91772H13.7393C14.2915 2.91772 14.7393 3.36548 14.7393 3.91772C14.7393 4.46997 14.2915 4.91772 13.7393 4.91772H4.22168C3.66943 4.91772 3.22168 4.46997 3.22168 3.91772Z" fill="white"/>
<path d="M0.980469 10.2659H16.9805V12.2659H0.980469V10.2659Z" fill="white"/>
<path d="M0.980469 15.0823H16.9805V17.0823H0.980469V15.0823Z" fill="white"/>
</svg>
